<?xml version="1.0" encoding="UTF-8"?>
<svg version="1.1" xmlns="http://www.w3.org/2000/svg" width="467" height="134">
<path d="M0 0 C154.11 0 308.22 0 467 0 C467 44.22 467 88.44 467 134 C312.89 134 158.78 134 0 134 C0 89.78 0 45.56 0 0 Z " fill="#FDFDFE" transform="translate(0,0)"/>
<path d="M0 0 C0.79339783 0.0028299 1.58679565 0.00565979 2.40423584 0.00857544 C4.93110417 0.01974471 7.45761432 0.04484306 9.984375 0.0703125 C11.7005157 0.08034652 13.41666198 0.08947163 15.1328125 0.09765625 C19.33358139 0.11796945 23.53357861 0.15712344 27.734375 0.1953125 C28.229375 12.0753125 28.229375 12.0753125 28.734375 24.1953125 C31.95212289 24.99974947 34.45855616 25.37256413 37.71875 25.51171875 C38.65332031 25.55361328 39.58789062 25.59550781 40.55078125 25.63867188 C41.51886719 25.67798828 42.48695312 25.71730469 43.484375 25.7578125 C44.46792969 25.80099609 45.45148438 25.84417969 46.46484375 25.88867188 C48.88788775 25.99453302 51.3110304 26.09661421 53.734375 26.1953125 C53.81053825 33.49098004 53.8630226 40.78654474 53.89916992 48.08251953 C53.91424162 50.5636783 53.93470246 53.04481049 53.96069336 55.52587891 C53.99714667 59.09544439 54.01411792 62.66465711 54.02734375 66.234375 C54.04282761 67.34084381 54.05831146 68.44731262 54.07426453 69.58731079 C54.07648107 79.76676047 54.07648107 79.76676047 50.734375 84.1953125 C47.14100191 85.98787357 44.18689717 86.45385349 40.19726562 86.48583984 C39.11264038 86.49859955 38.02801514 86.51135925 36.91052246 86.52450562 C35.7489563 86.52673126 34.58739014 86.52895691 33.390625 86.53125 C31.58785095 86.5412352 31.58785095 86.5412352 29.74865723 86.55142212 C27.21022063 86.56153714 24.67175751 86.5662395 22.13330078 86.56591797 C18.24857951 86.57029649 14.3649895 86.60664549 10.48046875 86.64453125 C8.01302472 86.65039849 5.54557529 86.6543685 3.078125 86.65625 C1.33577576 86.67780655 1.33577576 86.67780655 -0.44177246 86.69979858 C-8.49226579 86.6541268 -8.49226579 86.6541268 -12.47460938 84.29150391 C-15.6275757 80.6012955 -15.40105261 78.15510879 -15.42675781 73.34643555 C-15.43172272 72.64216431 -15.43668762 71.93789307 -15.44180298 71.21228027 C-15.45643411 68.87718739 -15.46322868 66.54216248 -15.46875 64.20703125 C-15.47450134 62.5851898 -15.48025908 60.96334837 -15.48602295 59.34150696 C-15.4965361 55.9377104 -15.50237648 52.53393747 -15.50585938 49.13012695 C-15.51134017 44.7720807 -15.53535782 40.4143475 -15.56383133 36.05639935 C-15.5824725 32.7046264 -15.58766413 29.35292857 -15.58919525 26.00110817 C-15.59221975 24.39476627 -15.60024146 22.78842564 -15.61338043 21.18213463 C-15.63046983 18.93197345 -15.62855384 16.68257311 -15.62207031 14.43237305 C-15.62571594 13.15267136 -15.62936157 11.87296967 -15.63311768 10.55448914 C-15.23859976 6.9482802 -14.41142039 5.08270361 -12.265625 2.1953125 C-8.67510715 -0.59882807 -4.34293966 -0.05846331 0 0 Z " fill="#2F82F7" transform="translate(36.265625,23.8046875)"/>
<path d="M0 0 C6.60211319 -0.45014408 11.66025723 1.42733134 17.046875 5.22265625 C21.96848795 10.16456451 24.58914495 15.40823915 25.421875 22.34765625 C25.046875 25.22265625 25.046875 25.22265625 23.48535156 27.37792969 C20.11424442 29.92819857 17.85093143 29.67986349 13.65625 29.61328125 C12.59932953 29.60479156 12.59932953 29.60479156 11.52105713 29.59613037 C9.27896072 29.57380703 7.03848512 29.52362379 4.796875 29.47265625 C3.27346065 29.45258577 1.75002114 29.43433595 0.2265625 29.41796875 C-3.5005233 29.37395743 -7.22666587 29.30495997 -10.953125 29.22265625 C-10.458125 30.00640625 -9.963125 30.79015625 -9.453125 31.59765625 C-7.953125 34.22265625 -7.953125 34.22265625 -7.953125 36.22265625 C-0.17671672 39.3752542 5.31461801 40.20098987 13.1796875 36.95703125 C15.42898555 36.07237009 17.66263035 35.59519448 20.046875 35.22265625 C20.706875 36.87265625 21.366875 38.52265625 22.046875 40.22265625 C15.25359945 46.60296672 9.35652785 49.86216499 -0.171875 49.57421875 C-8.39319396 48.53500708 -13.41849866 44.41184302 -18.640625 38.22265625 C-22.59728215 32.19346441 -22.54394245 26.22157069 -21.953125 19.22265625 C-20.38047094 12.22032794 -16.94873491 7.38717049 -11.015625 3.47265625 C-7.23845053 1.25773225 -4.31935108 0.49240602 0 0 Z " fill="#2C3038" transform="translate(238.953125,56.77734375)"/>
<path d="M0 0 C4.6588424 4.11731644 8.44769813 8.64295194 9.24609375 14.94140625 C9.44891663 18.27876453 9.38263169 20.46033038 7.42480469 23.22167969 C4.10800693 25.65417615 1.91330885 25.45759523 -2.171875 25.390625 C-3.1955014 25.38213531 -3.1955014 25.38213531 -4.23980713 25.37347412 C-6.41059762 25.35115636 -8.57971206 25.30097508 -10.75 25.25 C-12.2252365 25.22992876 -13.70049899 25.21167907 -15.17578125 25.1953125 C-18.78439501 25.1513088 -22.39203381 25.08231583 -26 25 C-23.48221612 30.34759296 -23.48221612 30.34759296 -19 34 C-13.15470089 35.94843304 -8.70364612 35.54733065 -3.25 32.9375 C-2.53328125 32.55464844 -1.8165625 32.17179687 -1.078125 31.77734375 C1.38692938 30.85526514 2.56151426 31.12675848 5 32 C5.495 33.98 5.495 33.98 6 36 C0.18193969 41.78064514 -5.32711941 44.49933422 -13.5 45.375 C-22.01211628 44.46298754 -28.3473258 41.55863327 -34 35 C-38.12973284 28.83448336 -39.16095837 22.28424323 -38 15 C-35.6504674 7.58327268 -31.39705273 2.35354977 -25 -2 C-16.78833867 -6.01847257 -7.68471746 -4.55249764 0 0 Z " fill="#2B3037" transform="translate(390,61)"/>
<path d="M0 0 C16.5 0 33 0 50 0 C50 3.3 50 6.6 50 10 C37.13 10 24.26 10 11 10 C11 17.59 11 25.18 11 33 C18.19522782 32.9604134 18.19522782 32.9604134 25.39038086 32.90991211 C26.28120361 32.90741455 27.17202637 32.90491699 28.08984375 32.90234375 C29.00628662 32.89710693 29.92272949 32.89187012 30.86694336 32.88647461 C33 33 33 33 34 34 C34.0979057 35.49738124 34.12974864 36.99942892 34.125 38.5 C34.12886719 39.72203125 34.12886719 39.72203125 34.1328125 40.96875 C34 43 34 43 33 44 C31.36527118 44.08700342 29.72685945 44.10701063 28.08984375 44.09765625 C27.199021 44.09515869 26.30819824 44.09266113 25.39038086 44.09008789 C24.25093018 44.08098389 23.11147949 44.07187988 21.9375 44.0625 C18.328125 44.041875 14.71875 44.02125 11 44 C11 54.56 11 65.12 11 76 C7.7 76 4.4 76 1 76 C-0.49282393 73.01435214 -0.11916977 70.31016282 -0.11352539 66.97998047 C-0.11367142 66.25792419 -0.11381744 65.53586792 -0.1139679 64.79193115 C-0.11327007 62.40031959 -0.10548375 60.00878549 -0.09765625 57.6171875 C-0.09579161 55.96094811 -0.09436792 54.30470816 -0.09336853 52.64846802 C-0.08954699 48.28532392 -0.07971978 43.922213 -0.06866455 39.55908203 C-0.05664602 34.32614325 -0.05204646 29.09319338 -0.04621124 23.86024475 C-0.03650785 15.90680674 -0.01734876 7.95344157 0 0 Z " fill="#272C33" transform="translate(272,29)"/>
<path d="M0 0 C16.17 0 32.34 0 49 0 C49 3.3 49 6.6 49 10 C36.13 10 23.26 10 10 10 C10 17.92 10 25.84 10 34 C17.59 34 25.18 34 33 34 C33 37.3 33 40.6 33 44 C25.41 44 17.82 44 10 44 C10 54.56 10 65.12 10 76 C7.03 76 4.06 76 1 76 C-0.66165207 74.33834793 -0.11959725 72.3348397 -0.12442017 70.11598206 C-0.12082489 69.41827194 -0.11722961 68.72056183 -0.11352539 68.00170898 C-0.11367142 67.27004517 -0.11381744 66.53838135 -0.1139679 65.7845459 C-0.11326867 63.35503216 -0.10547585 60.92559417 -0.09765625 58.49609375 C-0.0957921 56.81600486 -0.09436819 55.13591543 -0.09336853 53.45582581 C-0.08954307 49.02526357 -0.07971256 44.5947339 -0.06866455 40.16418457 C-0.05665655 34.85284346 -0.05204832 29.54149148 -0.04621124 24.23014069 C-0.03650081 16.15340444 -0.01734447 8.07673973 0 0 Z " fill="#232830" transform="translate(113,29)"/>
<path d="M0 0 C3.51320668 -0.64792746 6.50503595 -0.8202974 10 0 C14.11368281 3.6054816 16.88208494 8.06209835 19.59765625 12.76953125 C20.8056071 15.11912373 20.8056071 15.11912373 23 16 C23.25910156 15.29488281 23.51820313 14.58976562 23.78515625 13.86328125 C26.01778448 8.60117033 28.79669589 3.91411678 33 0 C36.83817839 -0.91793491 40.13774961 -0.70287277 44 0 C43.38640193 3.40150908 42.13484647 5.43905543 40.0234375 8.15234375 C39.14171875 9.31733398 39.14171875 9.31733398 38.2421875 10.50585938 C36.99637398 12.12828388 35.74373661 13.74549106 34.484375 15.35742188 C33.60652344 16.5243457 33.60652344 16.5243457 32.7109375 17.71484375 C32.16743652 18.41730225 31.62393555 19.11976074 31.06396484 19.84350586 C29.79234559 21.97384787 29.79234559 21.97384787 30.14453125 24.49780273 C31.07740054 27.22639216 32.22012549 29.03907057 33.9765625 31.3203125 C34.85828125 32.49400391 34.85828125 32.49400391 35.7578125 33.69140625 C37.00927243 35.32249314 38.26188933 36.95269295 39.515625 38.58203125 C40.10085938 39.36191406 40.68609375 40.14179687 41.2890625 40.9453125 C42.10431396 42.00516357 42.10431396 42.00516357 42.93603516 43.08642578 C43.28714355 43.71790527 43.63825195 44.34938477 44 45 C43.67 45.99 43.34 46.98 43 48 C39.74451696 48.83118716 37.23802781 48.97043303 34 48 C29.09128797 43.15946453 25.30591643 37.50727203 23 31 C19.60441878 34.07468014 17.6627952 37.2704224 15.4375 41.25 C11.89796167 46.76338296 11.89796167 46.76338296 8.03515625 47.78125 C5.26376047 47.75271568 2.71594391 47.53919475 0 47 C0.61500742 43.59498227 1.87463861 41.53811256 3.9765625 38.8125 C4.85828125 37.64074219 4.85828125 37.64074219 5.7578125 36.4453125 C7.00548727 34.81132839 8.25812556 33.18112273 9.515625 31.5546875 C10.10085938 30.77351563 10.68609375 29.99234375 11.2890625 29.1875 C11.83256348 28.47980469 12.37606445 27.77210937 12.93603516 27.04296875 C14.18233399 25.08675857 14.18233399 25.08675857 13.85327148 23.00219727 C12.84942004 20.64666489 11.60270868 18.82147976 10.05859375 16.77734375 C9.47529297 15.99166016 8.89199219 15.20597656 8.29101562 14.39648438 C7.05204555 12.75279277 5.81245879 11.10956583 4.57226562 9.46679688 C3.99025391 8.68240234 3.40824219 7.89800781 2.80859375 7.08984375 C2.27032959 6.37691162 1.73206543 5.66397949 1.17749023 4.92944336 C0 3 0 3 0 0 Z " fill="#292E35" transform="translate(406,58)"/>
<path d="M0 0 C3.63 0 7.26 0 11 0 C11 25.08 11 50.16 11 76 C8.03 76 5.06 76 2 76 C0 74 0 74 -0.24050903 70.95016479 C-0.23606781 69.64000397 -0.23162659 68.32984314 -0.22705078 66.97998047 C-0.22734283 66.25792419 -0.22763489 65.53586792 -0.22793579 64.79193115 C-0.22654008 62.40022858 -0.21096783 60.00883579 -0.1953125 57.6171875 C-0.19158322 55.9609494 -0.18873585 54.30470911 -0.18673706 52.64846802 C-0.17909389 48.2852776 -0.1594396 43.92221993 -0.1373291 39.55908203 C-0.11688535 35.10841671 -0.1077385 30.65772997 -0.09765625 26.20703125 C-0.07619429 17.47129319 -0.04205018 8.7356631 0 0 Z " fill="#2E323A" transform="translate(331,29)"/>
<path d="M0 0 C1.64574566 -0.02688151 3.29161413 -0.04634123 4.9375 -0.0625 C5.85402344 -0.07410156 6.77054688 -0.08570312 7.71484375 -0.09765625 C10 0 10 0 11 1 C11.09492722 3.34253782 11.12559791 5.65546104 11.11352539 7.99829102 C11.11367142 8.72995483 11.11381744 9.46161865 11.1139679 10.2154541 C11.11326867 12.64496784 11.10547585 15.07440583 11.09765625 17.50390625 C11.0957921 19.18399514 11.09436819 20.86408457 11.09336853 22.54417419 C11.08954307 26.97473643 11.07971256 31.4052661 11.06866455 35.83581543 C11.05845103 40.35342976 11.05387104 44.87104934 11.04882812 49.38867188 C11.03809031 58.25912893 11.02101356 67.12956176 11 76 C7.7 76 4.4 76 1 76 C-0.49282393 73.01435214 -0.11916977 70.31016282 -0.11352539 66.97998047 C-0.11367142 66.25792419 -0.11381744 65.53586792 -0.1139679 64.79193115 C-0.11327007 62.40031959 -0.10548375 60.00878549 -0.09765625 57.6171875 C-0.09579161 55.96094811 -0.09436792 54.30470816 -0.09336853 52.64846802 C-0.08954699 48.28532392 -0.07971978 43.922213 -0.06866455 39.55908203 C-0.05844264 35.10840301 -0.05386924 30.65771863 -0.04882812 26.20703125 C-0.0380972 17.47133892 -0.02102512 8.73567359 0 0 Z " fill="#2D323A" transform="translate(196,29)"/>
<path d="M0 0 C0.8146875 0.00257812 1.629375 0.00515625 2.46875 0.0078125 C3.2834375 0.00523438 4.098125 0.00265625 4.9375 0 C6.96875 0.1328125 6.96875 0.1328125 7.96875 1.1328125 C8.06170815 2.57571037 8.08621513 4.02311035 8.08227539 5.46899414 C8.08219986 6.3898732 8.08212433 7.31075226 8.08204651 8.25953674 C8.07688522 9.26056931 8.07172394 10.26160187 8.06640625 11.29296875 C8.0649913 12.31257187 8.06357635 13.33217499 8.06211853 14.38267517 C8.05650097 17.65358357 8.0439455 20.92442463 8.03125 24.1953125 C8.02623726 26.40690006 8.02167396 28.61848868 8.01757812 30.83007812 C8.00652584 36.26434607 7.98977063 41.69857447 7.96875 47.1328125 C6.51082116 47.18680986 5.05232288 47.22560427 3.59375 47.2578125 C2.78164062 47.28101563 1.96953125 47.30421875 1.1328125 47.328125 C-1.03125 47.1328125 -1.03125 47.1328125 -3.03125 45.1328125 C-3.27848816 43.22862244 -3.27848816 43.22862244 -3.27416992 40.88256836 C-3.27724655 40.00503403 -3.28032318 39.12749969 -3.28349304 38.22337341 C-3.27630753 37.27438675 -3.26912201 36.32540009 -3.26171875 35.34765625 C-3.26126053 34.37623184 -3.26080231 33.40480743 -3.2603302 32.40394592 C-3.25730624 30.34863057 -3.24941566 28.29331755 -3.23706055 26.23803711 C-3.21880503 23.07983345 -3.21655081 19.92192277 -3.21679688 16.76367188 C-3.21188182 14.77083078 -3.20605355 12.77799168 -3.19921875 10.78515625 C-3.19810593 9.83414536 -3.1969931 8.88313446 -3.19584656 7.90330505 C-3.18946671 7.02892288 -3.18308685 6.15454071 -3.17651367 5.25366211 C-3.17270187 4.48025986 -3.16889008 3.7068576 -3.16496277 2.91001892 C-2.97052477 0.32569978 -2.57860049 0.1686008 0 0 Z " fill="#2D323A" transform="translate(174.03125,57.8671875)"/>
<path d="M0 0 C0 3.43876815 -0.61469634 4.29989033 -2.47851562 7.10424805 C-3.01907593 7.92487228 -3.55963623 8.74549652 -4.11657715 9.59098816 C-5.00246521 10.9129998 -5.00246521 10.9129998 -5.90625 12.26171875 C-6.50554321 13.16751175 -7.10483643 14.07330475 -7.72229004 15.00654602 C-9.64178213 17.90450992 -11.57075116 20.79602452 -13.5 23.6875 C-14.80140939 25.64867186 -16.1021987 27.61025535 -17.40234375 29.57226562 C-20.59437721 34.38631354 -23.7942185 39.19509781 -27 44 C-29.6799995 42.69036378 -32.00401336 41.3534596 -34.34765625 39.50390625 C-34.95287109 39.02759766 -35.55808594 38.55128906 -36.18164062 38.06054688 C-37.11266602 37.31901367 -37.11266602 37.31901367 -38.0625 36.5625 C-38.68705078 36.07201172 -39.31160156 35.58152344 -39.95507812 35.07617188 C-46.01598481 30.28307492 -46.01598481 30.28307492 -48 28 C-47.6875 25.8125 -47.6875 25.8125 -47 24 C-46.04738281 24.37253906 -45.09476563 24.74507812 -44.11328125 25.12890625 C-42.84660271 25.60742925 -41.5796615 26.08525736 -40.3125 26.5625 C-39.68666016 26.80935547 -39.06082031 27.05621094 -38.41601562 27.31054688 C-34.43832267 28.78916572 -32.00740125 29.41625864 -28 28 C-25.58811657 26.12728134 -23.50561217 23.97080318 -21.38671875 21.77734375 C-20.46509697 20.84723228 -20.46509697 20.84723228 -19.52485657 19.89833069 C-17.56946542 17.92059417 -15.62845936 15.92939183 -13.6875 13.9375 C-12.36225375 12.59218652 -11.03609191 11.2477743 -9.70898438 9.90429688 C-6.46194927 6.61321872 -3.22774404 3.30999568 0 0 Z " fill="#F5F9FE" transform="translate(80,53)"/>
<path d="M0 0 C3.4919213 1.74596065 5.21602248 2.95968891 7.890625 5.625 C8.59960938 6.33140625 9.30859375 7.0378125 10.0390625 7.765625 C10.76867187 8.50296875 11.49828125 9.2403125 12.25 10 C12.99507812 10.73734375 13.74015625 11.4746875 14.5078125 12.234375 C15.21164063 12.94078125 15.91546875 13.6471875 16.640625 14.375 C17.28547852 15.02210937 17.93033203 15.66921875 18.59472656 16.3359375 C20 18 20 18 20 20 C13.4 20 6.8 20 0 20 C0 13.4 0 6.8 0 0 Z " fill="#2D81F7" transform="translate(69,24)"/>
<path d="M0 0 C3.8026029 2.0050088 5.61790841 3.42686262 8 7 C8 7.99 8 8.98 8 10 C-0.25 10 -8.5 10 -17 10 C-13.49695064 1.24237661 -9.10661739 -1.13258771 0 0 Z " fill="#F9F9FA" transform="translate(380,67)"/>
<path d="M0 0 C4.06662662 1.55271198 5.57519602 2.36279402 8 6 C8 7.32 8 8.64 8 10 C0.08 10 -7.84 10 -16 10 C-15.04603434 5.23017171 -14.62778268 3.80891132 -10.875 0.94921875 C-7.32688223 -0.84701587 -3.84908372 -0.64036634 0 0 Z " fill="#FAFAFA" transform="translate(244,67)"/>
<path d="M0 0 C1.8125 1.1875 1.8125 1.1875 3 3 C3.42674516 5.84496772 3.36066991 7.36352369 1.9375 9.875 C-1.17002199 11.67936761 -3.62799333 10.81177938 -7 10 C-8.39431504 7.21136993 -8.25660094 5.07921132 -8 2 C-4.76746204 -0.15502531 -3.74849077 -0.46856135 0 0 Z " fill="#282C34" transform="translate(179,29)"/>
</svg>
